<mxfile host="app.diagrams.net" modified="2023-08-09T13:12:55.491Z" agent="Mozilla/5.0 (Macintosh; Intel Mac OS X 10_15_7) AppleWebKit/537.36 (KHTML, like Gecko) Chrome/115.0.0.0 Safari/537.36" etag="4WqIzy34iYRfa3PfbHUK" version="21.6.6" type="github">
  <diagram name="第 1 页" id="89b9G1f62LetFLGM5Pli">
    <mxGraphModel dx="1243" dy="963" grid="1" gridSize="10" guides="1" tooltips="1" connect="1" arrows="1" fold="1" page="1" pageScale="1" pageWidth="827" pageHeight="1169" math="0" shadow="0">
      <root>
        <mxCell id="0" />
        <mxCell id="1" parent="0" />
        <mxCell id="sPmqU03wDviz6VuCcM6i-1" value="" style="whiteSpace=wrap;html=1;rounded=0;" vertex="1" parent="1">
          <mxGeometry x="172" y="180" width="448" height="460" as="geometry" />
        </mxCell>
        <mxCell id="sPmqU03wDviz6VuCcM6i-2" style="edgeStyle=orthogonalEdgeStyle;rounded=0;orthogonalLoop=1;jettySize=auto;html=1;entryX=0.5;entryY=0;entryDx=0;entryDy=0;" edge="1" parent="1" source="sPmqU03wDviz6VuCcM6i-3" target="sPmqU03wDviz6VuCcM6i-7">
          <mxGeometry relative="1" as="geometry" />
        </mxCell>
        <mxCell id="sPmqU03wDviz6VuCcM6i-3" value="kafka消息" style="rounded=0;whiteSpace=wrap;html=1;" vertex="1" parent="1">
          <mxGeometry x="337" y="110" width="120" height="60" as="geometry" />
        </mxCell>
        <mxCell id="sPmqU03wDviz6VuCcM6i-4" value="" style="edgeStyle=orthogonalEdgeStyle;rounded=0;orthogonalLoop=1;jettySize=auto;html=1;" edge="1" parent="1" source="sPmqU03wDviz6VuCcM6i-7" target="sPmqU03wDviz6VuCcM6i-9">
          <mxGeometry relative="1" as="geometry" />
        </mxCell>
        <mxCell id="sPmqU03wDviz6VuCcM6i-5" value="生成上下文消息" style="edgeLabel;html=1;align=center;verticalAlign=middle;resizable=0;points=[];" vertex="1" connectable="0" parent="sPmqU03wDviz6VuCcM6i-4">
          <mxGeometry x="-0.2" relative="1" as="geometry">
            <mxPoint as="offset" />
          </mxGeometry>
        </mxCell>
        <mxCell id="sPmqU03wDviz6VuCcM6i-6" value="" style="edgeStyle=orthogonalEdgeStyle;rounded=0;orthogonalLoop=1;jettySize=auto;html=1;" edge="1" parent="1" source="sPmqU03wDviz6VuCcM6i-7" target="sPmqU03wDviz6VuCcM6i-9">
          <mxGeometry relative="1" as="geometry" />
        </mxCell>
        <mxCell id="sPmqU03wDviz6VuCcM6i-7" value="规则组装" style="rounded=0;whiteSpace=wrap;html=1;" vertex="1" parent="1">
          <mxGeometry x="337" y="200" width="120" height="60" as="geometry" />
        </mxCell>
        <mxCell id="sPmqU03wDviz6VuCcM6i-8" value="" style="edgeStyle=orthogonalEdgeStyle;rounded=0;orthogonalLoop=1;jettySize=auto;html=1;" edge="1" parent="1" source="sPmqU03wDviz6VuCcM6i-9" target="sPmqU03wDviz6VuCcM6i-11">
          <mxGeometry relative="1" as="geometry" />
        </mxCell>
        <mxCell id="sPmqU03wDviz6VuCcM6i-9" value="选择器匹配规则&lt;br&gt;根据事件/游戏/活动时间/活动状态/" style="rounded=0;whiteSpace=wrap;html=1;" vertex="1" parent="1">
          <mxGeometry x="337" y="300" width="120" height="60" as="geometry" />
        </mxCell>
        <mxCell id="sPmqU03wDviz6VuCcM6i-28" value="" style="edgeStyle=orthogonalEdgeStyle;rounded=0;orthogonalLoop=1;jettySize=auto;html=1;" edge="1" parent="1" source="sPmqU03wDviz6VuCcM6i-11" target="sPmqU03wDviz6VuCcM6i-27">
          <mxGeometry relative="1" as="geometry" />
        </mxCell>
        <mxCell id="sPmqU03wDviz6VuCcM6i-11" value="过滤器1&lt;br&gt;（gameType&amp;nbsp;filterList）" style="rounded=0;whiteSpace=wrap;html=1;" vertex="1" parent="1">
          <mxGeometry x="330" y="390" width="130" height="60" as="geometry" />
        </mxCell>
        <mxCell id="sPmqU03wDviz6VuCcM6i-12" value="" style="whiteSpace=wrap;html=1;rounded=0;" vertex="1" parent="1">
          <mxGeometry x="170" y="660" width="450" height="210" as="geometry" />
        </mxCell>
        <mxCell id="sPmqU03wDviz6VuCcM6i-13" value="" style="edgeStyle=orthogonalEdgeStyle;rounded=0;orthogonalLoop=1;jettySize=auto;html=1;" edge="1" parent="1" source="sPmqU03wDviz6VuCcM6i-14" target="sPmqU03wDviz6VuCcM6i-15">
          <mxGeometry relative="1" as="geometry" />
        </mxCell>
        <mxCell id="sPmqU03wDviz6VuCcM6i-14" value="执行器&lt;br&gt;(statDailyPumpingRate)" style="rounded=0;whiteSpace=wrap;html=1;" vertex="1" parent="1">
          <mxGeometry x="318.5" y="570" width="155" height="60" as="geometry" />
        </mxCell>
        <mxCell id="sPmqU03wDviz6VuCcM6i-15" value="myshard" style="shape=cylinder3;whiteSpace=wrap;html=1;boundedLbl=1;backgroundOutline=1;size=15;" vertex="1" parent="1">
          <mxGeometry x="350" y="680" width="90" height="50" as="geometry" />
        </mxCell>
        <mxCell id="sPmqU03wDviz6VuCcM6i-16" style="edgeStyle=orthogonalEdgeStyle;rounded=0;orthogonalLoop=1;jettySize=auto;html=1;entryX=0.5;entryY=1;entryDx=0;entryDy=0;entryPerimeter=0;" edge="1" parent="1" source="sPmqU03wDviz6VuCcM6i-18" target="sPmqU03wDviz6VuCcM6i-15">
          <mxGeometry relative="1" as="geometry" />
        </mxCell>
        <mxCell id="sPmqU03wDviz6VuCcM6i-18" value="业务基础数据查询模块" style="rounded=0;whiteSpace=wrap;html=1;" vertex="1" parent="1">
          <mxGeometry x="335" y="780" width="120" height="60" as="geometry" />
        </mxCell>
        <mxCell id="sPmqU03wDviz6VuCcM6i-19" style="edgeStyle=orthogonalEdgeStyle;rounded=0;orthogonalLoop=1;jettySize=auto;html=1;entryX=0.5;entryY=1;entryDx=0;entryDy=0;" edge="1" parent="1" source="sPmqU03wDviz6VuCcM6i-20" target="sPmqU03wDviz6VuCcM6i-18">
          <mxGeometry relative="1" as="geometry" />
        </mxCell>
        <mxCell id="sPmqU03wDviz6VuCcM6i-20" value="上游业务" style="rounded=0;whiteSpace=wrap;html=1;" vertex="1" parent="1">
          <mxGeometry x="335" y="940" width="120" height="60" as="geometry" />
        </mxCell>
        <mxCell id="sPmqU03wDviz6VuCcM6i-21" value="&lt;font style=&quot;font-size: 18px;&quot;&gt;规则引擎&lt;/font&gt;" style="text;strokeColor=none;align=center;fillColor=none;html=1;verticalAlign=middle;whiteSpace=wrap;rounded=0;" vertex="1" parent="1">
          <mxGeometry x="172" y="220" width="78" height="40" as="geometry" />
        </mxCell>
        <mxCell id="sPmqU03wDviz6VuCcM6i-22" value="&lt;font style=&quot;font-size: 18px;&quot;&gt;业务基础数据模块&lt;/font&gt;" style="text;strokeColor=none;align=center;fillColor=none;html=1;verticalAlign=middle;whiteSpace=wrap;rounded=0;" vertex="1" parent="1">
          <mxGeometry x="172" y="660" width="88" height="60" as="geometry" />
        </mxCell>
        <mxCell id="sPmqU03wDviz6VuCcM6i-23" style="edgeStyle=orthogonalEdgeStyle;rounded=0;orthogonalLoop=1;jettySize=auto;html=1;entryX=0;entryY=0.5;entryDx=0;entryDy=0;exitX=0.5;exitY=0;exitDx=0;exitDy=0;" edge="1" parent="1" source="sPmqU03wDviz6VuCcM6i-25" target="sPmqU03wDviz6VuCcM6i-7">
          <mxGeometry relative="1" as="geometry">
            <mxPoint x="252.5" y="770" as="sourcePoint" />
            <mxPoint x="270" y="230" as="targetPoint" />
          </mxGeometry>
        </mxCell>
        <mxCell id="sPmqU03wDviz6VuCcM6i-24" value="读取规则" style="edgeLabel;html=1;align=center;verticalAlign=middle;resizable=0;points=[];" vertex="1" connectable="0" parent="sPmqU03wDviz6VuCcM6i-23">
          <mxGeometry x="0.086" relative="1" as="geometry">
            <mxPoint x="1" as="offset" />
          </mxGeometry>
        </mxCell>
        <mxCell id="sPmqU03wDviz6VuCcM6i-25" value="业务基础数据&lt;br&gt;生成规则配置" style="rounded=0;whiteSpace=wrap;html=1;" vertex="1" parent="1">
          <mxGeometry x="197.5" y="780" width="120" height="60" as="geometry" />
        </mxCell>
        <mxCell id="sPmqU03wDviz6VuCcM6i-29" value="" style="edgeStyle=orthogonalEdgeStyle;rounded=0;orthogonalLoop=1;jettySize=auto;html=1;" edge="1" parent="1" source="sPmqU03wDviz6VuCcM6i-27" target="sPmqU03wDviz6VuCcM6i-14">
          <mxGeometry relative="1" as="geometry" />
        </mxCell>
        <mxCell id="sPmqU03wDviz6VuCcM6i-27" value="过滤器2&lt;br&gt;（messageType&amp;nbsp;filterList）" style="rounded=0;whiteSpace=wrap;html=1;" vertex="1" parent="1">
          <mxGeometry x="330" y="490" width="130" height="60" as="geometry" />
        </mxCell>
      </root>
    </mxGraphModel>
  </diagram>
</mxfile>
